<?xml version="1.0" standalone="no"?>
<!DOCTYPE svg PUBLIC "-//W3C//DTD SVG 20010904//EN"
 "http://www.w3.org/TR/2001/REC-SVG-20010904/DTD/svg10.dtd">
<svg version="1.0" xmlns="http://www.w3.org/2000/svg"
 width="1182.000000pt" height="558.000000pt" viewBox="0 0 1182.000000 558.000000"
 preserveAspectRatio="xMidYMid meet">

<g transform="translate(0.000000,558.000000) scale(0.100000,-0.100000)"
fill="#000000" stroke="none">
<path d="M5705 5015 c-384 -71 -688 -254 -917 -552 -266 -345 -360 -818 -246
-1242 170 -632 742 -1071 1396 -1071 479 0 930 243 1197 645 183 276 261 583
235 917 -41 506 -340 943 -807 1177 -119 59 -242 98 -408 127 -99 17 -353 17
-450 -1z m490 -106 c251 -56 458 -162 647 -331 177 -159 337 -424 392 -650 l6
-28 -640 0 -640 0 0 -84 c0 -86 -9 -108 -35 -86 -11 9 -15 34 -15 91 l0 79
-640 0 -640 0 6 28 c18 74 71 207 116 292 187 353 515 597 924 690 122 27 396
27 519 -1z m-660 -1177 c-236 -154 -478 -346 -714 -567 -79 -73 -117 -102
-122 -93 -20 37 -60 176 -79 272 -24 119 -30 262 -17 399 l9 87 536 0 536 0
-149 -98z m1732 11 c19 -202 -1 -399 -59 -568 -17 -49 -33 -96 -37 -103 -5 -9
-42 20 -122 93 -236 221 -478 413 -714 567 l-149 98 536 0 536 0 9 -87z
m-1310 -241 c19 -12 31 -316 13 -337 -17 -21 -56 -19 -72 4 -20 27 -9 318 12
331 18 12 31 12 47 2z m15 -549 c12 -14 17 -56 22 -180 l7 -161 -27 -21 c-31
-24 -59 -20 -87 11 -15 18 -17 36 -11 177 7 166 15 191 59 191 12 0 29 -8 37
-17z m-9 -534 c33 -15 47 -49 47 -114 l0 -55 -75 0 -75 0 0 55 c0 63 14 99 44
113 28 14 31 14 59 1z"/>
<path d="M4900 1505 l0 -275 -25 0 c-16 0 -39 14 -64 39 -23 23 -63 48 -97 61
-51 19 -73 21 -159 18 -115 -5 -181 -30 -257 -98 -53 -46 -118 -163 -144 -260
-28 -103 -25 -320 5 -427 42 -149 126 -259 240 -316 54 -26 78 -32 155 -35
114 -5 185 19 254 84 27 26 55 44 69 44 21 0 23 -4 23 -50 l0 -50 100 0 100 0
0 770 0 770 -100 0 -100 0 0 -275z m-150 -368 c98 -51 151 -171 153 -347 2
-255 -97 -390 -284 -390 -79 0 -126 17 -175 62 -155 143 -150 523 9 652 74 59
206 69 297 23z"/>
<path d="M11267 1773 c-4 -3 -7 -127 -7 -275 l0 -268 -25 0 c-16 0 -39 14 -64
39 -23 23 -63 48 -97 61 -51 19 -73 21 -159 18 -88 -4 -108 -9 -164 -37 -167
-85 -253 -263 -254 -526 0 -205 43 -338 144 -449 74 -81 155 -118 274 -124
113 -5 185 19 256 84 25 24 56 44 68 44 19 0 21 -6 21 -50 l0 -50 100 0 100 0
0 770 0 770 -93 0 c-52 0 -97 -3 -100 -7z m-174 -627 c151 -63 218 -317 146
-551 -17 -55 -31 -78 -72 -119 -58 -57 -104 -76 -187 -76 -99 0 -174 40 -224
119 -103 164 -72 491 56 594 68 55 194 70 281 33z"/>
<path d="M5818 1705 c-203 -50 -321 -195 -378 -465 -19 -87 -25 -364 -10 -476
14 -118 51 -250 88 -318 45 -83 128 -165 202 -199 151 -69 379 -31 438 74 12
21 25 29 45 29 26 0 27 -2 27 -55 l0 -55 90 0 90 0 0 360 0 360 -245 0 -245 0
0 -95 0 -95 155 0 155 0 0 -33 c0 -54 -29 -149 -63 -205 -97 -163 -283 -189
-413 -58 -91 91 -123 221 -124 491 0 314 56 467 195 531 38 18 67 24 125 24
150 0 235 -72 285 -243 l16 -57 95 0 c108 0 101 -9 79 107 -46 244 -229 395
-475 392 -41 0 -101 -7 -132 -14z"/>
<path d="M410 965 l0 -725 105 0 105 0 0 310 0 310 88 0 87 0 182 -308 182
-307 115 -3 c64 -1 116 0 116 4 0 4 -84 144 -186 310 -102 167 -183 308 -179
314 3 5 14 10 23 10 33 0 141 59 188 102 94 87 129 178 122 317 -9 154 -75
264 -197 330 -99 53 -162 61 -473 61 l-278 0 0 -725z m642 493 c54 -32 85 -77
97 -142 19 -102 -23 -193 -112 -242 -51 -27 -57 -28 -234 -32 l-183 -4 0 227
0 227 193 -4 c189 -3 193 -3 239 -30z"/>
<path d="M1979 1340 c-205 -52 -332 -219 -358 -470 -23 -214 29 -399 145 -520
91 -96 200 -140 344 -140 142 0 240 39 332 131 114 113 164 267 155 479 -10
247 -98 404 -274 488 -73 34 -83 36 -192 39 -64 1 -132 -2 -152 -7z m257 -201
c56 -27 108 -87 136 -158 20 -49 22 -74 22 -201 0 -163 -10 -203 -75 -286 -47
-61 -106 -88 -200 -92 -129 -7 -211 44 -265 163 -35 76 -49 200 -35 302 23
162 92 260 206 291 56 16 159 7 211 -19z"/>
<path d="M3215 1336 c-172 -43 -293 -167 -323 -333 l-9 -53 98 0 97 0 7 29
c11 50 61 118 107 144 24 14 71 31 105 37 171 34 295 -44 310 -194 l5 -52
-158 -23 c-271 -40 -346 -65 -424 -143 -67 -67 -85 -115 -85 -228 1 -83 4
-102 27 -146 31 -59 83 -108 147 -138 38 -17 65 -21 151 -21 99 0 110 2 172
33 37 18 77 46 88 62 15 22 30 30 51 30 28 0 29 -1 29 -50 l0 -50 95 0 95 0 0
393 c0 408 -4 447 -45 527 -46 89 -128 152 -233 176 -70 17 -239 17 -307 0z
m392 -672 c-4 -43 -16 -82 -34 -116 -32 -59 -107 -123 -161 -138 -56 -15 -149
-12 -189 7 -99 47 -96 187 5 246 35 21 262 64 341 66 l44 1 -6 -66z"/>
<path d="M8303 1336 c-170 -41 -296 -173 -322 -335 l-8 -51 97 0 97 0 11 38
c29 95 97 151 207 172 175 33 293 -42 311 -197 l6 -49 -158 -23 c-271 -40
-346 -65 -424 -143 -67 -67 -85 -115 -85 -228 0 -81 4 -102 25 -143 29 -58 86
-112 149 -141 38 -17 65 -21 151 -21 92 0 112 3 160 26 30 14 71 42 90 62 23
25 44 37 63 37 26 0 27 -2 27 -50 l0 -50 95 0 95 0 0 393 c0 413 -3 446 -48
532 -44 84 -128 147 -231 171 -69 17 -239 17 -308 0z m397 -644 c0 -100 -54
-197 -140 -252 -45 -29 -63 -34 -130 -38 -60 -3 -85 0 -115 14 -107 50 -98
206 15 256 32 14 272 56 328 57 l42 1 0 -38z"/>
<path d="M9872 1338 c-18 -6 -52 -28 -76 -50 -27 -23 -54 -38 -70 -38 -24 0
-26 4 -26 40 l0 40 -210 0 -210 0 0 -95 0 -95 120 0 120 0 -2 -357 -3 -358
-102 -3 -103 -3 0 -89 0 -90 370 0 370 0 0 90 0 90 -166 0 -166 0 4 288 c3
260 6 291 24 335 27 64 66 104 116 118 70 18 138 -7 170 -64 7 -12 15 -71 18
-132 l5 -110 103 -3 102 -3 0 111 c0 188 -37 283 -138 354 -38 27 -51 30 -130
32 -48 2 -102 -2 -120 -8z"/>
<path d="M6752 913 c3 -411 3 -419 26 -475 31 -76 108 -160 180 -195 51 -25
67 -28 157 -28 113 1 180 23 231 76 18 19 38 29 56 29 26 0 28 -3 28 -40 l0
-40 100 0 100 0 0 545 0 545 -100 0 -100 0 0 -348 c0 -383 -6 -436 -59 -502
-15 -19 -47 -45 -72 -58 -38 -20 -55 -23 -127 -19 -71 3 -88 7 -124 33 -25 17
-52 49 -67 79 l-26 49 -5 381 -5 380 -98 3 -98 3 3 -418z"/>
</g>
</svg>
